<?xml version="1.0" encoding="utf-8"?>
<!-- Generator: Adobe Illustrator 27.1.1, SVG Export Plug-In . SVG Version: 6.00 Build 0)  -->
<svg version="1.1" id="svg3476" xmlns="http://www.w3.org/2000/svg" xmlns:xlink="http://www.w3.org/1999/xlink" x="0px" y="0px"
	 viewBox="0 0 290.2 329.1" style="enable-background:new 0 0 290.2 329.1;" xml:space="preserve">
<style type="text/css">
	.st0{fill:none;}
	.st1{fill:#EBEBEB;}
	.st2{fill:#FFFFFF;}
</style>
<g id="layer1" transform="translate(-193.633 -276.362)">
	<g id="g3013" transform="translate(119 276.362)">
		<path id="polygon2989" class="st0" d="M333.8,35.1l-20.8,233L219.5,294l-93.2-25.9l-20.8-233C105.5,35.1,333.8,35.1,333.8,35.1z"
			/>
		<path id="polygon2993" class="st1" d="M121.3,135.5l3.7,42.4h94.8v-42.4H121.3z"/>
		<path id="polygon2995" class="st1" d="M219.7,49.7H113.6l3.9,42.4h102.3L219.7,49.7z"/>
		<path id="polygon2997" class="st1" d="M219.7,289.4v-44l-0.1,0.1l-47.2-12.9l-3-33.6H127l5.8,66.3L219.7,289.4L219.7,289.4z"/>
		<path id="polygon3005" class="st2" d="M271.7,177.8l-4.9,54.9l-47.2,12.9v44l86.8-24.1l0.6-7.1L317,146.9l0.9-11.3l7.7-85.7h-106
			v42.4h59.7l-3.9,43.4h-55.8V178h52.1V177.8z"/>
	</g>
</g>
</svg>
