<?xml version="1.0" encoding="utf-8"?>
<svg version="1.1" id="svg3476" xmlns="http://www.w3.org/2000/svg" xmlns:xlink="http://www.w3.org/1999/xlink" x="0px" y="0px"
	 viewBox="0 0 290.2 329.1" style="enable-background:new 0 0 290.2 329.1;" xml:space="preserve">
<style type="text/css">
	.st0{fill:#EBEBEB;}
	.st1{fill:#FFFFFF;}
</style>
<path class="st0" d="M144.9,135.5H89l-4-43.2h59.9V49.9H38.9L40,61.1l10.5,116.5h94.3V135.5z M144.9,245.5L144.9,245.5l-47.2-12.7
	L94.8,199H52l6.2,66.4l86.7,23.9h0.4L144.9,245.5z"/>
<path class="st1" d="M144.9,135.5V178h52.2l-5.1,54.8l-47.2,12.7v43.9l86.7-23.9l0.7-7.3l9.8-111.4l1.1-11.2H232H144.9z M144.9,49.9
	v42.5h102.3l0.7-9.4l1.8-21.4l1.1-11.2H144.9V49.9z"/>
</svg>
