<svg xmlns="http://www.w3.org/2000/svg" xml:space="preserve" id="svg3476" x="0" y="0" style="enable-background:new 0 0 290.2 329.1" version="1.1" viewBox="0 0 290.2 329.1"><style>.st2{fill:#ebebeb}</style><g id="layer1" transform="translate(-193.633 -276.362)"><g id="g3013" transform="translate(119 276.362)"><path id="polygon2989" d="m333.8 35.1-20.8 233-93.5 25.9-93.2-25.9-20.8-233h228.3z" style="fill:#264de4"/><path id="polygon2991" d="M295.3 253.2 313 54.1h-93.3v220l75.6-20.9z" style="fill:#2965f1"/><path id="polygon2993" d="m153.2 140.6 2.5 28.6h64v-28.6h-66.5z" class="st2"/><path id="polygon2995" d="M219.7 82.7H148l2.6 28.6h69.1V82.7z" class="st2"/><path id="polygon2997" d="M219.7 244.5v-29.7l-.1.1-31.9-8.7-2-22.7h-28.6l3.9 44.8 58.7 16.2z" class="st2"/><path id="polygon3005" d="m254.8 169.2-3.3 37.1-31.9 8.7v29.7l58.6-16.3.4-4.8 6.8-75.3.6-7.6 5.2-57.9h-71.6v28.6h40.3l-2.6 29.3h-37.7v28.6h35.2z" style="fill:#fff"/></g></g></svg>