<?xml version="1.0" encoding="utf-8"?>
<!-- Generator: Adobe Illustrator 27.1.1, SVG Export Plug-In . SVG Version: 6.00 Build 0)  -->
<svg version="1.1" id="svg3476" xmlns="http://www.w3.org/2000/svg" xmlns:xlink="http://www.w3.org/1999/xlink" x="0px" y="0px"
	 viewBox="0 0 290.2 329.1" style="enable-background:new 0 0 290.2 329.1;" xml:space="preserve">
<style type="text/css">
	.st0{fill:#264DE4;}
	.st1{fill:#2965F1;}
	.st2{fill:#EBEBEB;}
	.st3{fill:#FFFFFF;}
</style>
<g id="layer1" transform="translate(-193.633 -276.362)">
	<g id="g3013" transform="translate(119 276.362)">
		<path id="polygon2989" class="st0" d="M333.8,35.1l-20.8,233L219.5,294l-93.2-25.9l-20.8-233H333.8z"/>
		<path id="polygon2991" class="st1" d="M295.3,253.2L313,54.1h-93.3v220L295.3,253.2z"/>
		<path id="polygon2993" class="st2" d="M153.2,140.6l2.5,28.6h64v-28.6H153.2z"/>
		<path id="polygon2995" class="st2" d="M219.7,82.7H148l2.6,28.6h69.1L219.7,82.7z"/>
		<path id="polygon2997" class="st2" d="M219.7,244.5v-29.7l-0.1,0.1l-31.9-8.7l-2-22.7h-28.6l3.9,44.8L219.7,244.5L219.7,244.5z"/>
		<path id="polygon3005" class="st3" d="M254.8,169.2l-3.3,37.1l-31.9,8.7v29.7l58.6-16.3l0.4-4.8l6.8-75.3l0.6-7.6l5.2-57.9h-71.6
			v28.6h40.3l-2.6,29.3h-37.7v28.6H254.8z"/>
	</g>
</g>
</svg>
