<svg xmlns="http://www.w3.org/2000/svg" xml:space="preserve" style="enable-background:new 0 0 128 128" viewBox="0 0 128 128"><path d="m25.9 106.2-8.5-95h93.1l-8.5 95-38.1 10.6-38-10.6z" style="fill:#e44d26"/><path d="m64 108.7 30.8-8.5L102 19H64v89.7z" style="fill:#f16529"/><path d="M64 54.2H48.6l-1.1-11.9H64V30.6H34.8l.3 3.1L38 65.8h26V54.2zm0 30.3L51 81l-.8-9.3H38.4L40.1 90 64 96.6h.1L64 84.5z" style="fill:#ebebeb"/><path d="M64 54.2v11.7h14.4L77 81l-13 3.5v12.1L87.9 90l.2-2 2.7-30.7.3-3.1H64zm0-23.6v11.7h28.2l.2-2.6.5-5.9.3-3.1H64z" style="fill:#fff"/></svg>