<?xml version="1.0" encoding="utf-8"?>
<!-- Generator: Adobe Illustrator 27.1.1, SVG Export Plug-In . SVG Version: 6.00 Build 0)  -->
<svg version="1.1" id="Слой_1" xmlns="http://www.w3.org/2000/svg" xmlns:xlink="http://www.w3.org/1999/xlink" x="0px" y="0px"
	 viewBox="0 0 128 128" style="enable-background:new 0 0 128 128;" xml:space="preserve">
<style type="text/css">
	.st0{fill:#E44D26;}
	.st1{fill:#F16529;}
	.st2{fill:#EBEBEB;}
	.st3{fill:#FFFFFF;}
</style>
<path class="st0" d="M25.9,106.2l-8.5-95h93.1l-8.5,95l-38.1,10.6L25.9,106.2z"/>
<path class="st1" d="M64,108.7l30.8-8.5l7.2-81.2H64V108.7z"/>
<path class="st2" d="M64,54.2H48.6l-1.1-11.9H64V30.6H34.8l0.3,3.1l2.9,32.1H64V54.2z M64,84.5L64,84.5L51,81l-0.8-9.3H38.4L40.1,90
	l23.9,6.6l0.1,0L64,84.5z"/>
<path class="st3" d="M64,54.2v11.7h14.4L77,81l-13,3.5v12.1L87.9,90l0.2-2l2.7-30.7l0.3-3.1h-3.1H64z M64,30.6v11.7h28.2l0.2-2.6
	l0.5-5.9l0.3-3.1H64z"/>
</svg>
