<svg version="1.1" xmlns="http://www.w3.org/2000/svg" xmlns:xlink="http://www.w3.org/1999/xlink" x="0px" y="0px"
	 viewBox="0 0 32 32" style="enable-background:new 0 0 32 32;" xmlSpace="preserve">
<style type="text/css">
	.st0{fill:'none';stroke:#526b5b;stroke-width:3;stroke-miterlimit:10;}
</style>
<circle class="st0" cx="15.5" cy="15.5" r="10"/>
<path d="M28.04,29.54L28.04,29.54c-0.59,0.59-1.54,0.59-2.12,0l-4.95-4.95c-0.58-0.58-0.58-1.53,0-2.11l1.07-1.07l0,0l6.01,6.01
	C28.62,28,28.62,28.95,28.04,29.54z"/>
<path d="M23.72,25.28L23.72,25.28c-0.71,0.71-1.4,1.16-1.55,1.02l-1.24-1.24c-0.15-0.15,0.31-0.84,1.01-1.54l1.29-1.29l0,0l1.5,1.5
	C24.88,23.88,24.43,24.57,23.72,25.28z"/>
</svg>
