<svg xmlns="http://www.w3.org/2000/svg" viewBox="0 0 182 182"><defs><style>.cls-1{fill:#ed1c24}</style></defs><path d="M106.18 104.111q-5.093-3.928-14.477-3.929H77.66V131.1h14.26q9.093 0 14.225-4.22t5.128-11.713q0-7.128-5.093-11.056Z" class="cls-1"/><path d="M149.932 0H32.068A32.068 32.068 0 0 0 0 32.068v117.864A32.068 32.068 0 0 0 32.068 182h117.864A32.068 32.068 0 0 0 182 149.932V32.068A32.068 32.068 0 0 0 149.932 0ZM125.6 139.942Q114.693 149 95.777 149H53.652V36.3h40.014q18.408 0 28.375 6.985t9.967 19.352a23.378 23.378 0 0 1-6.184 16.079 31.9 31.9 0 0 1-15.57 9.53v.292Q122.04 90 129.279 97.271a24.84 24.84 0 0 1 7.241 18.262q0 15.353-10.92 24.409Z" class="cls-1"/><path d="M102.033 78.138q4.73-3.928 4.729-10.986 0-12.949-18.916-12.95H77.66v27.864h11.424q8.216 0 12.949-3.928Z" class="cls-1"/></svg>